<svg width="105" height="31" fill="none" xmlns="http://www.w3.org/2000/svg"><path d="M100.964.047H4.667C2.54.047.815 1.727.815 3.797v22.5c0 2.071 1.725 3.75 3.852 3.75h96.297c2.127 0 3.851-1.679 3.851-3.75v-22.5c0-2.071-1.724-3.75-3.851-3.75z" fill="#000"/><path d="M100.964.647c.858 0 1.681.332 2.287.923.607.59.948 1.392.948 2.227v22.5c0 .836-.341 1.637-.948 2.227a3.278 3.278 0 01-2.287.923H4.667a3.28 3.28 0 01-2.288-.922 3.108 3.108 0 01-.947-2.228v-22.5c0-.835.34-1.637.947-2.227A3.28 3.28 0 014.667.647h96.297zm0-.6H4.667a3.906 3.906 0 00-2.723 1.098A3.7 3.7 0 00.815 3.797v22.5a3.7 3.7 0 001.129 2.652 3.906 3.906 0 002.723 1.098h96.297a3.905 3.905 0 002.723-1.098 3.698 3.698 0 001.128-2.652v-22.5a3.7 3.7 0 00-1.128-2.652 3.904 3.904 0 00-2.723-1.098z" fill="#A6A6A6"/><path d="M25.554 14.532c-.021-2.303 1.937-3.424 2.027-3.476-1.11-1.574-2.828-1.79-3.433-1.807-1.443-.147-2.844.841-3.58.841-.75 0-1.882-.826-3.103-.802-1.57.024-3.04.909-3.846 2.284-1.663 2.803-.423 6.923 1.17 9.189.798 1.11 1.73 2.349 2.949 2.305 1.192-.047 1.638-.74 3.077-.74 1.426 0 1.845.74 3.088.712 1.28-.02 2.086-1.114 2.856-2.234.92-1.272 1.29-2.525 1.305-2.59-.03-.01-2.486-.922-2.51-3.682zm-2.349-6.773c.642-.781 1.08-1.844.959-2.922-.929.04-2.09.625-2.759 1.389-.591.673-1.12 1.776-.983 2.814 1.043.076 2.114-.512 2.783-1.281zm19.611 15.148h-1.667l-.913-2.794h-3.174l-.87 2.794h-1.623l3.145-9.51h1.942l3.16 9.51zm-2.856-3.965l-.825-2.484c-.088-.253-.252-.85-.493-1.791h-.03a67.517 67.517 0 01-.463 1.791l-.811 2.484h2.622zm10.942.452c0 1.166-.324 2.088-.971 2.765-.58.602-1.3.903-2.16.903-.927 0-1.594-.324-2-.973h-.029V25.7h-1.565v-7.394c0-.733-.02-1.486-.058-2.257h1.376l.088 1.087h.03c.52-.82 1.313-1.228 2.376-1.228.83 0 1.524.32 2.08.959.556.64.833 1.482.833 2.526zm-1.594.056c0-.668-.154-1.218-.464-1.651-.339-.452-.793-.677-1.362-.677-.386 0-.737.125-1.05.373a1.73 1.73 0 00-.617.981 1.943 1.943 0 00-.072.465v1.143c0 .499.157.92.471 1.264.314.343.722.515 1.224.515.59 0 1.048-.222 1.377-.663.328-.443.493-1.026.493-1.75zm9.696-.056c0 1.166-.324 2.088-.972 2.765-.58.602-1.3.903-2.159.903-.928 0-1.594-.324-2-.973h-.029V25.7H52.28v-7.394c0-.733-.02-1.486-.058-2.257h1.377l.087 1.087h.03c.52-.82 1.313-1.228 2.376-1.228.83 0 1.524.32 2.08.959.554.64.833 1.482.833 2.526zm-1.595.056c0-.668-.154-1.218-.464-1.651-.339-.452-.791-.677-1.362-.677a1.65 1.65 0 00-1.05.373c-.315.25-.52.577-.616.981a1.984 1.984 0 00-.073.465v1.143c0 .499.157.92.47 1.264.314.343.722.515 1.226.515.59 0 1.048-.222 1.376-.663.329-.443.493-1.026.493-1.75zm10.652.79c0 .809-.288 1.467-.867 1.975-.637.555-1.523.833-2.661.833-1.051 0-1.894-.197-2.532-.593l.363-1.27a4.37 4.37 0 002.262.608c.59 0 1.048-.13 1.378-.389.328-.259.492-.606.492-1.039 0-.386-.135-.71-.406-.975-.27-.263-.72-.508-1.348-.735-1.71-.62-2.565-1.53-2.565-2.727 0-.782.3-1.423.9-1.921.597-.5 1.394-.75 2.391-.75.889 0 1.627.152 2.217.452l-.391 1.242c-.55-.291-1.173-.437-1.87-.437-.55 0-.98.132-1.289.395-.26.235-.391.522-.391.861 0 .376.149.687.448.931.261.226.734.47 1.421.734.84.33 1.458.715 1.855 1.157.396.44.593.99.593 1.648zm5.174-3.047H71.51v3.33c0 .846.304 1.27.914 1.27.28 0 .511-.024.695-.072l.043 1.157c-.308.113-.714.17-1.217.17-.618 0-1.101-.185-1.45-.551-.347-.367-.522-.983-.522-1.849v-3.456h-1.027v-1.144h1.027v-1.255l1.537-.452v1.707h1.725v1.145zm7.783 2.229c0 1.054-.31 1.92-.928 2.596-.648.697-1.508 1.044-2.58 1.044-1.034 0-1.857-.334-2.47-1.001-.614-.668-.921-1.51-.921-2.525 0-1.063.316-1.933.95-2.61.631-.678 1.484-1.016 2.556-1.016 1.034 0 1.865.333 2.493 1.002.6.648.9 1.485.9 2.51zm-1.624.05c0-.633-.138-1.176-.42-1.628-.328-.547-.797-.82-1.404-.82-.63 0-1.107.273-1.435.82-.282.453-.42 1.004-.42 1.656 0 .632.138 1.175.42 1.626.338.548.81.82 1.42.82.598 0 1.067-.278 1.406-.834.288-.46.433-1.009.433-1.64zm6.711-2.082a2.785 2.785 0 00-.494-.043c-.55 0-.976.202-1.275.608-.261.357-.392.809-.392 1.354v3.598H82.38l.015-4.698c0-.79-.02-1.51-.059-2.159H83.7l.057 1.312h.044c.165-.45.425-.814.782-1.086a1.927 1.927 0 011.131-.367c.145 0 .276.01.392.028v1.453zm6.998 1.764c0 .273-.018.503-.057.69h-4.695c.019.678.246 1.196.681 1.554.396.32.908.48 1.536.48.695 0 1.33-.109 1.9-.325l.245 1.057c-.667.283-1.453.424-2.361.424-1.093 0-1.95-.313-2.574-.938-.622-.625-.934-1.465-.934-2.518 0-1.034.29-1.895.87-2.582.608-.733 1.43-1.1 2.463-1.1 1.015 0 1.783.367 2.305 1.1.414.582.621 1.303.621 2.158zm-1.492-.395c.01-.452-.092-.842-.304-1.172-.27-.423-.687-.635-1.247-.635a1.5 1.5 0 00-1.246.621c-.26.33-.415.725-.463 1.185h3.26zM39.443 7.547c0 .84-.26 1.474-.777 1.9-.479.391-1.16.588-2.042.588a9.77 9.77 0 01-1.126-.056V5.384c.41-.065.85-.098 1.325-.098.84 0 1.474.178 1.901.534.479.403.719.978.719 1.727zm-.811.02c0-.545-.148-.963-.445-1.254-.296-.291-.73-.437-1.3-.437-.242 0-.448.016-.62.049v3.493c.095.015.268.02.52.02.589 0 1.043-.158 1.363-.477.32-.319.482-.783.482-1.394zm5.111.714c0 .518-.151.943-.455 1.276-.319.342-.74.513-1.268.513-.508 0-.912-.164-1.214-.492-.301-.329-.451-.742-.451-1.241 0-.522.154-.95.466-1.282.31-.332.73-.499 1.256-.499.508 0 .916.164 1.225.492.294.319.441.73.441 1.233zm-.797.024a1.5 1.5 0 00-.207-.8c-.161-.268-.39-.402-.69-.402a.775.775 0 00-.705.403c-.138.222-.206.493-.206.813 0 .31.069.577.206.8.167.268.399.403.698.403.294 0 .524-.137.69-.41a1.49 1.49 0 00.214-.806zm6.564-1.68l-1.083 3.368h-.704l-.449-1.462a10.72 10.72 0 01-.278-1.089h-.014c-.067.37-.16.733-.278 1.089l-.477 1.462h-.712l-1.018-3.368h.79l.391 1.601c.095.379.173.74.235 1.081h.014c.057-.281.152-.64.286-1.074l.49-1.608h.628L47.8 8.2c.114.384.206.753.278 1.11h.02c.053-.347.132-.717.236-1.11l.42-1.574h.755zm3.988 3.368h-.77V8.064c0-.595-.231-.892-.697-.892a.702.702 0 00-.555.245.856.856 0 00-.214.578v1.998h-.769V7.587c0-.295-.01-.616-.028-.964h.676l.036.527h.021c.09-.164.224-.299.399-.407.208-.125.442-.189.697-.189.323 0 .592.102.806.305.265.25.398.622.398 1.116v2.018zm2.122 0h-.77V5.08h.77v4.914zm4.528-1.712c0 .518-.152.943-.456 1.276-.318.342-.741.513-1.267.513-.509 0-.913-.164-1.214-.492-.301-.329-.452-.742-.452-1.241 0-.522.155-.95.466-1.282.311-.332.73-.499 1.256-.499.509 0 .916.164 1.226.492.294.319.441.73.441 1.233zm-.799.024c0-.31-.068-.577-.206-.8-.16-.268-.391-.402-.689-.402a.774.774 0 00-.705.403c-.138.222-.207.493-.207.813 0 .31.07.577.207.8.166.268.398.403.698.403.293 0 .523-.137.689-.41a1.48 1.48 0 00.213-.806zm4.522 1.688h-.69l-.058-.388h-.021c-.236.31-.573.465-1.01.465-.328 0-.592-.102-.79-.305a.943.943 0 01-.271-.686c0-.412.176-.726.53-.943.354-.217.852-.324 1.492-.319v-.062c0-.444-.239-.666-.718-.666-.342 0-.642.084-.902.25l-.157-.492c.322-.194.719-.29 1.187-.29.905 0 1.358.464 1.358 1.393v1.24c0 .337.017.605.05.803zm-.799-1.157v-.52c-.848-.014-1.272.212-1.272.68 0 .175.048.306.147.394a.55.55 0 00.376.132.79.79 0 00.47-.156.637.637 0 00.28-.53zm5.17 1.157h-.683l-.036-.54h-.021c-.218.411-.59.617-1.111.617a1.32 1.32 0 01-1.04-.478c-.275-.319-.412-.733-.412-1.24 0-.546.149-.988.448-1.325.29-.314.645-.472 1.068-.472.465 0 .79.153.975.458h.015V5.079h.77v4.007c0 .328.008.63.027.907zm-.797-1.42V8.01a.849.849 0 00-.3-.69.768.768 0 00-.514-.183.796.796 0 00-.677.333c-.164.222-.247.506-.247.852 0 .333.079.604.237.811a.799.799 0 00.672.333.749.749 0 00.608-.277.908.908 0 00.22-.617zm7.375-.292c0 .518-.151.943-.455 1.276-.319.342-.74.513-1.268.513-.507 0-.911-.164-1.214-.492-.3-.329-.451-.742-.451-1.241 0-.522.155-.95.466-1.282.311-.332.73-.499 1.257-.499.508 0 .916.164 1.225.492.293.319.44.73.44 1.233zm-.796.024a1.5 1.5 0 00-.207-.8c-.162-.268-.39-.402-.69-.402a.777.777 0 00-.706.403c-.138.222-.206.493-.206.813 0 .31.07.577.206.8.167.268.399.403.698.403.294 0 .525-.137.691-.41a1.49 1.49 0 00.214-.806zm4.933 1.688h-.769V8.064c0-.595-.231-.892-.698-.892a.7.7 0 00-.554.245.852.852 0 00-.214.578v1.998h-.77V7.587c0-.295-.009-.616-.027-.964h.675l.036.527h.021c.09-.164.224-.299.399-.407.21-.125.442-.189.698-.189.322 0 .59.102.804.305.267.25.399.622.399 1.116v2.018zm5.177-2.807h-.847v1.636c0 .416.15.624.448.624.138 0 .253-.011.343-.035l.02.568a1.773 1.773 0 01-.598.084c-.303 0-.54-.09-.71-.27-.173-.18-.258-.483-.258-.909V7.186h-.505v-.561h.505v-.618l.754-.221v.838h.847v.562zm4.073 2.807h-.77V8.078c0-.604-.233-.906-.697-.906-.357 0-.6.175-.734.525a.916.916 0 00-.036.27v2.026h-.77V5.079h.769v2.03h.015c.242-.37.589-.554 1.039-.554.319 0 .582.102.791.306.26.253.392.63.392 1.13v2.002zm4.2-1.843c0 .134-.01.247-.028.34h-2.307c.01.332.12.586.334.762.195.157.447.235.755.235.341 0 .652-.052.933-.159l.12.52c-.328.139-.714.208-1.161.208-.536 0-.958-.153-1.263-.46-.307-.308-.459-.72-.459-1.238 0-.508.142-.93.427-1.268.298-.36.701-.54 1.21-.54.498 0 .876.18 1.131.54.206.286.308.64.308 1.06zm-.734-.194a.987.987 0 00-.149-.575c-.133-.208-.337-.313-.612-.313a.737.737 0 00-.612.306 1.117 1.117 0 00-.228.582h1.601z" fill="#fff"/></svg>