<svg width="81" height="81" fill="none" xmlns="http://www.w3.org/2000/svg"><circle cx="40.47" cy="40.893" r="40" fill="#F3FBF8"/><g clip-path="url(#clip0_260_55)" fill="#09A66D"><path d="M23.507 32.55h6.18a.586.586 0 100-1.171h-6.18a.586.586 0 100 1.171zm5.967 2.821h-2.44a.586.586 0 000 1.172h2.44a.586.586 0 100-1.172zm-8.418 4.064h5.977a.586.586 0 000-1.172h-5.977a.586.586 0 100 1.172zm9.216 10.387a.586.586 0 00-.586-.586h-6.18a.586.586 0 000 1.172h6.18a.586.586 0 00.586-.586zm-.798-4.578h-2.44a.586.586 0 100 1.172h2.44a.586.586 0 100-1.172zm-1.854-2.306a.586.586 0 00-.587-.586h-5.977a.586.586 0 100 1.172h5.977a.586.586 0 00.586-.586zm17.813-9.089a.586.586 0 00.586-.586v-.894a.586.586 0 10-1.172 0v.894c0 .324.262.586.586.586zm6.443.602a.586.586 0 00-.83 0l-.632.633a.586.586 0 00.83.828l.632-.632a.586.586 0 000-.829zm1.187 5.856a.586.586 0 100 1.172h.894a.586.586 0 100-1.172h-.894zm-1.82 5.568a.586.586 0 00-.829.828l.633.633a.586.586 0 00.829-.829l-.633-.632zm-6.396 2.649v.894a.586.586 0 001.172 0v-.894a.586.586 0 10-1.172 0zm-5.224-2.649l-.632.632a.586.586 0 00.828.829l.633-.633a.586.586 0 00-.829-.828zm-2.715-5.568a.586.586 0 100 1.172h.894a.586.586 0 000-1.172h-.894zm3.544-5.223l-.633-.633a.586.586 0 00-.828.829l.632.632a.586.586 0 10.829-.828zm8.132 5.81a.586.586 0 00-.586-.587h-1.98v-4.35a.586.586 0 10-1.171 0v4.937c0 .323.262.585.586.585h2.565a.586.586 0 00.586-.585z"/><path d="M56.543 40.797a.586.586 0 00.55-.62c-.373-6.15-5.495-10.966-11.66-10.966-6.442 0-11.682 5.24-11.682 11.683 0 6.441 5.24 11.682 11.682 11.682 5.77 0 10.695-4.229 11.552-9.934a.586.586 0 00-1.16-.174c-.769 5.126-5.195 8.936-10.392 8.936-5.796 0-10.51-4.715-10.51-10.51 0-5.796 4.714-10.51 10.51-10.51 5.547 0 10.154 4.332 10.49 9.864.02.322.297.568.62.549z"/><path d="M45.433 25.857c-2.06 0-4.08.427-5.939 1.227H29.156a.586.586 0 000 1.172h8.134a15.022 15.022 0 00-3.005 2.547.586.586 0 00.869.787 13.895 13.895 0 0110.28-4.561c7.644 0 13.864 6.22 13.864 13.864 0 7.645-6.22 13.865-13.865 13.865-7.645 0-13.865-6.22-13.865-13.865 0-2.677.765-5.275 2.212-7.514a.586.586 0 10-.985-.636 14.982 14.982 0 00-2.399 8.15c0 5.295 2.75 9.958 6.898 12.638h-8.138a.586.586 0 100 1.172h10.33a14.95 14.95 0 005.947 1.227c8.292 0 15.037-6.745 15.037-15.037 0-8.29-6.745-15.036-15.037-15.036z"/></g><defs><clipPath id="clip0_260_55"><path fill="#fff" transform="translate(20.47 20.893)" d="M0 0h40v40H0z"/></clipPath></defs></svg>