<svg width="105" height="31" fill="none" xmlns="http://www.w3.org/2000/svg"><path d="M100.964.047H4.667C2.54.047.815 1.727.815 3.797v22.5c0 2.071 1.725 3.75 3.852 3.75h96.297c2.127 0 3.851-1.679 3.851-3.75v-22.5c0-2.071-1.724-3.75-3.851-3.75z" fill="#000"/><path d="M100.964.647c.858 0 1.681.332 2.287.923.607.59.948 1.392.948 2.227v22.5c0 .836-.341 1.637-.948 2.227a3.278 3.278 0 01-2.287.923H4.667a3.28 3.28 0 01-2.288-.922 3.108 3.108 0 01-.947-2.228v-22.5c0-.835.34-1.637.947-2.227A3.28 3.28 0 014.667.647h96.297zm0-.6H4.667a3.906 3.906 0 00-2.723 1.098A3.7 3.7 0 00.815 3.797v22.5a3.7 3.7 0 001.129 2.652 3.906 3.906 0 002.723 1.098h96.297a3.905 3.905 0 002.723-1.098 3.698 3.698 0 001.128-2.652v-22.5a3.7 3.7 0 00-1.128-2.652 3.904 3.904 0 00-2.723-1.098z" fill="#A6A6A6"/><path d="M53.308 16.36a3.337 3.337 0 00-1.814.544 3.207 3.207 0 00-1.2 1.434 3.11 3.11 0 00-.18 1.84c.129.617.442 1.184.9 1.628a3.304 3.304 0 001.677.868 3.357 3.357 0 001.89-.183 3.257 3.257 0 001.466-1.174c.36-.524.55-1.14.55-1.77a3.07 3.07 0 00-.237-1.23 3.137 3.137 0 00-.713-1.043 3.235 3.235 0 00-1.074-.688 3.304 3.304 0 00-1.265-.226zm0 5.122a2.031 2.031 0 01-1.139-.258 1.955 1.955 0 01-.793-.838 1.89 1.89 0 01.339-2.152 2 2 0 011.013-.569 2.038 2.038 0 011.167.085c.371.142.69.389.915.71.225.32.346.699.347 1.087a1.8 1.8 0 01-.112.723c-.087.232-.22.444-.393.624a1.905 1.905 0 01-1.344.588zm-7.172-5.122c-.647.001-1.28.19-1.817.54a3.21 3.21 0 00-1.202 1.433 3.11 3.11 0 00-.183 1.84c.127.619.44 1.186.898 1.63a3.302 3.302 0 001.676.871 3.357 3.357 0 001.89-.183 3.256 3.256 0 001.469-1.174c.36-.524.551-1.14.551-1.77a3.07 3.07 0 00-.238-1.23 3.138 3.138 0 00-.712-1.043 3.236 3.236 0 00-1.074-.688 3.305 3.305 0 00-1.265-.226h.007zm0 5.122a2.031 2.031 0 01-1.14-.254 1.957 1.957 0 01-.797-.836 1.89 1.89 0 01.333-2.154 2 2 0 011.013-.572 2.04 2.04 0 011.168.084c.371.141.691.388.917.709.225.32.346.7.347 1.088a1.802 1.802 0 01-.505 1.347 1.905 1.905 0 01-1.343.588h.007zm-8.543-4.14v1.35h3.328a2.792 2.792 0 01-.77 1.703 3.464 3.464 0 01-2.566.989 3.75 3.75 0 01-2.615-1.054 3.553 3.553 0 01-1.083-2.545c0-.955.39-1.87 1.083-2.546a3.75 3.75 0 012.615-1.054 3.596 3.596 0 012.52.967l.978-.952c-.456-.45-1-.805-1.6-1.046a4.959 4.959 0 00-1.89-.357 5.22 5.22 0 00-2.009.32 5.113 5.113 0 00-1.72 1.061 4.956 4.956 0 00-1.154 1.631 4.843 4.843 0 000 3.884 4.958 4.958 0 001.155 1.631 5.114 5.114 0 001.72 1.06c.64.238 1.323.347 2.008.32.66.03 1.317-.08 1.93-.318a4.633 4.633 0 001.621-1.069 4.43 4.43 0 001.202-3.165 4.29 4.29 0 00-.077-.847l-4.676.037zm34.905 1.05a3.006 3.006 0 00-1.077-1.44 3.136 3.136 0 00-1.727-.592 3.137 3.137 0 00-2.25.944 2.988 2.988 0 00-.654 1.038 2.928 2.928 0 00-.177 1.205c-.01.42.068.836.228 1.226.16.389.398.743.702 1.04.303.298.665.533 1.064.691a3.28 3.28 0 001.257.23 3.33 3.33 0 001.546-.37 3.23 3.23 0 001.18-1.04l-1.116-.75a1.85 1.85 0 01-.685.65 1.911 1.911 0 01-.925.236 1.7 1.7 0 01-.947-.246 1.634 1.634 0 01-.64-.722l4.383-1.762-.162-.338zm-4.468 1.065a1.703 1.703 0 01.095-.684 1.75 1.75 0 01.927-1.009c.216-.1.45-.156.688-.167a1.3 1.3 0 01.713.16c.216.12.392.299.505.515l-2.928 1.185zm-3.559 3.09h1.44v-9.375h-1.44v9.375zm-2.357-5.475h-.054a2.31 2.31 0 00-.78-.554 2.365 2.365 0 00-.946-.196 3.322 3.322 0 00-2.217.988 3.15 3.15 0 00-.906 2.204c0 .82.325 1.61.906 2.203a3.321 3.321 0 002.217.988c.327.005.65-.06.948-.189.299-.13.564-.321.778-.561h.046v.457c0 1.223-.67 1.875-1.749 1.875a1.844 1.844 0 01-1.001-.322 1.77 1.77 0 01-.647-.81l-1.256.51c.236.56.64 1.038 1.157 1.373a3.18 3.18 0 001.747.51c1.687 0 3.082-.968 3.082-3.323v-5.678h-1.325v.525zm-1.649 4.41a2.015 2.015 0 01-1.296-.623 1.914 1.914 0 01-.524-1.312c0-.486.187-.954.524-1.312.337-.358.8-.58 1.296-.623a1.873 1.873 0 011.294.609 1.756 1.756 0 01.455 1.326 1.74 1.74 0 01-.453 1.334 1.83 1.83 0 01-.589.43 1.875 1.875 0 01-.715.171h.008zm18.782-8.31h-3.444v9.375h1.44v-3.555h2.011c.411.029.823-.025 1.212-.158a3.013 3.013 0 001.045-.616c.301-.273.541-.604.706-.971a2.851 2.851 0 000-2.33 2.92 2.92 0 00-.706-.97 3.013 3.013 0 00-1.045-.616 3.071 3.071 0 00-1.212-.159h-.007zm0 4.5h-2.01v-3.195h2.04c.439 0 .86.17 1.169.471.31.302.484.711.484 1.138 0 .427-.174.836-.484 1.138-.31.301-.73.47-1.168.47l-.031-.022zm8.882-1.35a2.756 2.756 0 00-1.502.344 2.657 2.657 0 00-1.063 1.089l1.279.517c.126-.226.317-.412.55-.534.232-.123.496-.177.76-.156a1.424 1.424 0 011.03.29 1.325 1.325 0 01.51.918v.097a3.252 3.252 0 00-1.502-.36c-1.38 0-2.774.75-2.774 2.108.014.29.087.573.215.834.129.262.31.496.532.688a2.282 2.282 0 001.642.54c.362.026.725-.045 1.05-.203.326-.158.602-.399.799-.697h.046v.75h1.386V18.94c0-1.643-1.279-2.595-2.92-2.595l-.038-.023zm-.177 5.138c-.47 0-1.125-.233-1.125-.795 0-.75.817-.998 1.541-.998.458-.01.91.098 1.31.315a1.68 1.68 0 01-.556 1.057c-.31.276-.712.433-1.132.443l-.038-.022zm8.189-4.913l-1.649 4.065h-.046l-1.71-4.065h-1.54l2.564 5.685-1.463 3.158h1.502l3.944-8.843h-1.602zm-12.95 6h1.44v-9.375h-1.44v9.375zM37.298 7.774a1.992 1.992 0 01-.577 1.5 2.245 2.245 0 01-.775.51 2.296 2.296 0 01-.92.158 2.473 2.473 0 01-1.34-.405 2.376 2.376 0 01-.885-1.059 2.305 2.305 0 01-.137-1.359c.093-.456.323-.875.66-1.205.22-.22.486-.393.779-.51a2.38 2.38 0 01.923-.165 2.44 2.44 0 01.947.188c.279.109.527.281.724.502l-.408.398a1.538 1.538 0 00-.567-.412 1.578 1.578 0 00-.696-.121 1.83 1.83 0 00-.701.136 1.79 1.79 0 00-.59.392 1.736 1.736 0 00-.386.586 1.698 1.698 0 00-.118.686c-.005.35.096.693.291.986.195.294.475.525.805.663.33.14.694.18 1.047.117.354-.062.68-.225.938-.468.237-.25.374-.575.385-.915h-1.671v-.54h2.241c.021.11.031.224.031.337zm3.529-1.875h-2.08v1.425h1.895v.54h-1.895v1.425h2.08v.555H38.13v-4.5h2.697v.555zm2.526 3.945h-.593V5.899h-1.294v-.555h3.212v.555h-1.325v3.945zm3.59 0v-4.5h.593v4.5h-.593zm3.228 0h-.593V5.899h-1.294v-.555h3.174v.555H50.17v3.945zm7.303-.585c-.45.436-1.06.68-1.694.68a2.437 2.437 0 01-1.695-.68 2.396 2.396 0 01-.682-1.669c0-.62.244-1.217.682-1.668a2.39 2.39 0 01.777-.509 2.444 2.444 0 012.612.509c.44.45.685 1.047.685 1.668s-.245 1.219-.685 1.669zm-2.95-.375c.333.323.785.505 1.255.505.471 0 .923-.182 1.256-.505.33-.353.512-.813.512-1.29 0-.477-.183-.937-.512-1.29a1.804 1.804 0 00-1.255-.505c-.471 0-.923.182-1.256.505-.33.353-.512.813-.512 1.29 0 .477.183.937.512 1.29zm4.468.96v-4.5h.724l2.25 3.503V5.344h.593v4.5h-.616l-2.35-3.667v3.667h-.601z" fill="#fff"/><path fill-rule="evenodd" clip-rule="evenodd" d="M55.78 5.31c-.305 0-.607.058-.889.172a2.316 2.316 0 00-.751.492 2.322 2.322 0 00-.66 1.616c0 .601.236 1.18.66 1.617a2.359 2.359 0 001.64.658 2.36 2.36 0 001.64-.658 2.315 2.315 0 00.662-1.617c0-.601-.237-1.18-.663-1.616a2.315 2.315 0 00-.751-.492 2.366 2.366 0 00-.889-.172zm-.948.034a2.523 2.523 0 012.697.525h.001c.453.465.706 1.08.706 1.721a2.46 2.46 0 01-.706 1.72l-.001.002a2.516 2.516 0 01-1.75.703 2.515 2.515 0 01-1.749-.703l-.001-.001a2.47 2.47 0 01-.703-1.72c0-.64.251-1.256.703-1.721l.001-.001a2.47 2.47 0 01.802-.525zm-19.808-.03a2.288 2.288 0 00-.892.16c-.283.112-.54.28-.754.492-.326.32-.548.726-.638 1.168-.09.442-.044.9.132 1.316a2.3 2.3 0 00.858 1.025c.383.252.834.388 1.296.392h.002c.305.01.607-.042.89-.153a2.18 2.18 0 00.747-.492 1.95 1.95 0 00.43-.667 1.91 1.91 0 00.126-.778l.077-.003h-.077c0-.088-.006-.176-.019-.262h-2.1v.39h1.675l-.003.077c-.012.358-.156.7-.405.963l-.003.004a1.942 1.942 0 01-2.07.367 1.883 1.883 0 01-.838-.692 1.81 1.81 0 01-.304-1.026 1.772 1.772 0 01.123-.714 1.81 1.81 0 01.402-.611 1.872 1.872 0 011.345-.551 1.647 1.647 0 011.268.498l.3-.29a1.83 1.83 0 00-.648-.43l-.001-.002a2.365 2.365 0 00-.917-.181h-.002zm2.351 2.458c.014.285-.032.57-.135.836a2.1 2.1 0 01-.464.718 2.324 2.324 0 01-.8.527 2.375 2.375 0 01-.952.164 2.551 2.551 0 01-1.38-.418 2.453 2.453 0 01-.915-1.092 2.378 2.378 0 01-.14-1.402 2.42 2.42 0 01.68-1.244c.228-.227.502-.406.805-.526.302-.12.626-.178.953-.171.335 0 .667.065.976.193.29.114.547.293.753.523l.047.053-.519.504-.054-.062a1.462 1.462 0 00-.539-.39 1.499 1.499 0 00-.661-.116h-.005a1.75 1.75 0 00-.67.13 1.713 1.713 0 00-.565.375 1.66 1.66 0 00-.369.56c-.083.21-.121.433-.113.657v.004a1.66 1.66 0 00.279.945c.187.28.455.502.77.635a1.786 1.786 0 001.9-.336c.206-.217.331-.494.358-.787H34.95v-.69h2.383l.011.061c.022.115.032.232.032.35zm.678-2.503h2.85v.705h-2.08v1.275h1.896v.69h-1.895v1.275h2.08v.705h-2.85v-4.65zm.154.15v4.35h2.543v-.405h-2.08V7.789h1.895v-.39H38.67V5.824h2.08v-.405h-2.543zm3.182-.15h3.366v.705H43.43v3.945h-.747V5.974H41.39v-.705zm.154.15v.405h1.294v3.945h.44V5.824H44.6v-.405h-3.058zm5.323-.15h.748v4.65h-.748v-4.65zm.154.15v4.35h.44v-4.35h-.44zm1.187-.15h3.328v.705h-1.287v3.945h-.747V5.974h-1.294v-.705zm.154.15v.405h1.294v3.945h.44V5.824h1.286v-.405h-3.02zm10.554-.15h.844l2.13 3.316V5.27h.747v4.65H61.9l-2.23-3.48v3.48h-.755V5.27zm.154.15v4.35h.447V5.915l2.47 3.854h.496v-4.35h-.44v3.689l-2.369-3.689h-.604zm-4.6.832c.348-.337.82-.527 1.31-.527.492 0 .963.19 1.31.527l.003.003c.342.367.532.844.532 1.34 0 .496-.19.973-.532 1.34l-.002.003a1.882 1.882 0 01-1.31.527 1.88 1.88 0 01-1.31-.527l.054-.053-.057.05a1.966 1.966 0 01-.532-1.34c0-.496.19-.973.532-1.34l.002-.003zm.11 2.581c.32.309.75.482 1.2.482.45 0 .881-.173 1.2-.482a1.814 1.814 0 000-2.476 1.727 1.727 0 00-1.2-.482c-.45 0-.88.173-1.2.482-.315.34-.49.78-.49 1.238 0 .458.175.899.49 1.238z" fill="#fff"/><path d="M8.858 5.702a1.474 1.474 0 00-.354 1.05v16.59c-.024.381.103.757.354 1.05l.054.053 9.545-9.285v-.218L8.912 5.65l-.054.052z" fill="url(#paint0_linear_32_320)"/><path d="M21.615 18.257l-3.158-3.097v-.218l3.158-3.105.07.038 3.782 2.092c1.079.593 1.079 1.568 0 2.168L21.7 18.22l-.085.037z" fill="url(#paint1_linear_32_320)"/><path d="M21.708 18.212l-3.251-3.165-9.599 9.345a1.278 1.278 0 001.602.045l11.255-6.225" fill="url(#paint2_linear_32_320)"/><path d="M21.708 11.882L10.453 5.657a1.278 1.278 0 00-1.603.045l9.607 9.345 3.25-3.165z" fill="url(#paint3_linear_32_320)"/><path opacity=".2" d="M21.615 18.145l-11.162 6.187a1.31 1.31 0 01-1.541 0l-.054.053.054.052a1.302 1.302 0 001.54 0l11.256-6.225-.093-.067z" fill="#000"/><path opacity=".12" d="M8.858 24.287a1.474 1.474 0 01-.354-1.05v.113c-.024.38.103.756.354 1.05l.054-.053-.054-.06zm16.61-8.265l-3.853 2.123.07.067 3.782-2.085a1.326 1.326 0 00.771-1.08 1.378 1.378 0 01-.27.575 1.414 1.414 0 01-.5.4z" fill="#000"/><path opacity=".25" d="M10.453 5.762l15.014 8.31a1.387 1.387 0 01.77.975 1.292 1.292 0 00-.236-.64 1.34 1.34 0 00-.534-.44l-15.014-8.31c-1.079-.593-1.957-.098-1.957 1.102v.113c.023-1.208.886-1.703 1.957-1.11z" fill="#fff"/><defs><linearGradient id="paint0_linear_32_320" x1="17.61" y1="6.58" x2="5.029" y2="19.502" gradientUnits="userSpaceOnUse"><stop stop-color="#00A0FF"/><stop offset=".01" stop-color="#00A1FF"/><stop offset=".26" stop-color="#00BEFF"/><stop offset=".51" stop-color="#00D2FF"/><stop offset=".76" stop-color="#00DFFF"/><stop offset="1" stop-color="#00E3FF"/></linearGradient><linearGradient id="paint1_linear_32_320" x1="26.877" y1="15.047" x2="8.242" y2="15.047" gradientUnits="userSpaceOnUse"><stop stop-color="#FFE000"/><stop offset=".41" stop-color="#FFBD00"/><stop offset=".78" stop-color="orange"/><stop offset="1" stop-color="#FF9C00"/></linearGradient><linearGradient id="paint2_linear_32_320" x1="19.944" y1="16.772" x2="2.88" y2="34.292" gradientUnits="userSpaceOnUse"><stop stop-color="#FF3A44"/><stop offset="1" stop-color="#C31162"/></linearGradient><linearGradient id="paint3_linear_32_320" x1="6.439" y1=".182" x2="14.056" y2="8.006" gradientUnits="userSpaceOnUse"><stop stop-color="#32A071"/><stop offset=".07" stop-color="#2DA771"/><stop offset=".48" stop-color="#15CF74"/><stop offset=".8" stop-color="#06E775"/><stop offset="1" stop-color="#00F076"/></linearGradient></defs></svg>