<svg width="56" height="56" fill="none" xmlns="http://www.w3.org/2000/svg"><circle cx="28" cy="28" r="28" fill="#F3FBF8"/><g clip-path="url(#clip0_260_53)" fill="#09A66D"><path d="M28.002 12c-4.571 0-8.308 3.737-8.308 8.308 0 4.572 3.737 8.309 8.308 8.309 4.572 0 8.309-3.737 8.309-8.309 0-4.571-3.737-8.308-8.309-8.308zM42.26 35.256a7.745 7.745 0 00-.834-1.523c-1.669-2.468-4.245-4.1-7.147-4.5-.363-.036-.762.037-1.052.255a8.74 8.74 0 01-5.225 1.705 8.74 8.74 0 01-5.224-1.706 1.361 1.361 0 00-1.052-.253 10.252 10.252 0 00-7.148 4.498 8.927 8.927 0 00-.834 1.524c-.109.218-.073.472.036.69.29.508.653 1.016.98 1.45.508.69 1.052 1.307 1.669 1.887.508.508 1.088.98 1.669 1.452A16.438 16.438 0 0027.965 44c3.556 0 7.002-1.125 9.868-3.265a15.96 15.96 0 001.67-1.452c.58-.58 1.16-1.197 1.668-1.886.363-.472.69-.943.98-1.451.181-.218.218-.472.109-.69z"/></g><defs><clipPath id="clip0_260_53"><path fill="#fff" transform="translate(12 12)" d="M0 0h32v32H0z"/></clipPath></defs></svg>