<svg width="153" height="24" fill="none" xmlns="http://www.w3.org/2000/svg"><g clip-path="url(#clip0_32_280)"><path d="M141.425 15.404l4.097 2.293-.916-4.604 3.447-3.188-4.662-.553-1.966-4.263v10.315zm0 2.211l-6.804 3.809 1.519-7.648-5.725-5.294 7.743-.919 3.267-7.08 3.266 7.08 7.744.919-5.726 5.294 1.52 7.648-6.804-3.809z" fill="#F1B90B"/></g><g clip-path="url(#clip1_32_280)"><path d="M11.77 17.615l-6.803 3.809 1.52-7.648L.76 8.482l7.743-.919L11.77.483l3.266 7.08 7.744.919-5.726 5.294 1.52 7.648-6.804-3.809z" fill="#F1B90B"/></g><g clip-path="url(#clip2_32_280)"><path d="M44.184 17.615l-6.803 3.809 1.519-7.648-5.725-5.294 7.743-.919 3.267-7.08 3.266 7.08 7.743.919-5.725 5.294 1.52 7.648-6.804-3.809z" fill="#F1B90B"/></g><g clip-path="url(#clip3_32_280)"><path d="M76.598 17.615l-6.804 3.809 1.52-7.648-5.726-5.294 7.743-.919 3.267-7.08 3.266 7.08 7.744.919-5.726 5.294 1.52 7.648-6.804-3.809z" fill="#F1B90B"/></g><g clip-path="url(#clip4_32_280)"><path d="M109.011 17.615l-6.804 3.809 1.52-7.648-5.726-5.294 7.744-.919 3.266-7.08 3.267 7.08 7.743.919-5.725 5.294 1.519 7.648-6.804-3.809z" fill="#F1B90B"/></g><defs><clipPath id="clip0_32_280"><path fill="#fff" transform="translate(129.848)" d="M0 0h23.152v23.152H0z"/></clipPath><clipPath id="clip1_32_280"><path fill="#fff" transform="translate(.194)" d="M0 0h23.152v23.152H0z"/></clipPath><clipPath id="clip2_32_280"><path fill="#fff" transform="translate(32.608)" d="M0 0h23.152v23.152H0z"/></clipPath><clipPath id="clip3_32_280"><path fill="#fff" transform="translate(65.021)" d="M0 0h23.152v23.152H0z"/></clipPath><clipPath id="clip4_32_280"><path fill="#fff" transform="translate(97.435)" d="M0 0h23.152v23.152H0z"/></clipPath></defs></svg>