<svg width="56" height="56" fill="none" xmlns="http://www.w3.org/2000/svg"><circle cx="28" cy="28" r="28" fill="#F3FBF8"/><path d="M34.472 22h1.45c1.207 0 2.217-.86 2.45-2h-1.45c-1.207 0-2.217.86-2.45 2zM23 17.5c.05 0 .098.006.147.008l.351-3.51c.002-.295-.201-.498-.45-.498h-.095a.453.453 0 00-.453.453l.354 3.555c.049-.002.097-.008.146-.008zM19 28c0-.17.017-.337.045-.5H18v.343c.375.178.713.419 1 .712V28zm-.405-12.222l1.71 2.518c.135-.086.273-.166.416-.24l-1.029-2.828a.548.548 0 00-.765-.311l-.125.062a.548.548 0 00-.207.8zM20.691 26.5h5.569l.656-3.148c.055-.268.084-.543.084-.816 0-2.242-1.794-4.036-4-4.036s-4 1.794-4 4c0 .31.029.584.084.852l.578 2.773A2.993 2.993 0 0122 25v1a1.98 1.98 0 00-1.309.5zm3.809-6h1v1h-1v-1zm0 2h1v1h-1v-1zm0 2h1v1h-1v-1zm-7 6h1.45a2.504 2.504 0 00-2.45-2h-1.45c.233 1.14 1.243 2 2.45 2zm9.905-14.723a.548.548 0 00-.209-.798l-.124-.063a.546.546 0 00-.735.245.613.613 0 00-.03.066l-1.028 2.828c.143.073.281.154.416.24l1.71-2.519zM26.492 36.5H40.5v-3H25.826c.442.928.666 1.949.666 3zm12.008-2h1v1h-1v-1zm-13.268 6H39c.827 0 1.5-.673 1.5-1.5v-1.5H26.428a6.95 6.95 0 01-1.196 3zm13.268-2h1v1h-1v-1zm-18.429-11A1.97 1.97 0 0020 28v.5h22.5v-1H20.071zM20 30.933c.1-.024.201-.05.293-.089a3.883 3.883 0 014.413.977c.194.215.367.445.531.678H40.5v-3H20v1.434zm18.5-.433h1v1h-1v-1z" fill="#09A66D"/><path d="M23.962 32.49a2.918 2.918 0 00-3.276-.727 2.94 2.94 0 01-.686.193v.942c.497-.185.968-.575 1.147-.753l.707.708C21.736 32.971 20.674 34 19.5 34c-1.174 0-2.236-1.03-2.354-1.147l.707-.708c.179.178.65.567 1.147.753V31.5h-1.5c-.17 0-.334-.016-.497-.04-.701.05-1.443.442-1.989 1.055A5.99 5.99 0 0013.5 36.5c0 1.646.654 3.182 1.84 4.324a5.96 5.96 0 004.399 1.671c3.09-.12 5.619-2.633 5.755-5.723a5.976 5.976 0 00-1.532-4.282zM19.5 41.5c-2.757 0-5-2.243-5-5h1c0 2.205 1.794 4 4 4v1zm18.885-15a5.97 5.97 0 00-1.344-2.51 2.92 2.92 0 00-3.277-.726 2.85 2.85 0 01-.264.095V19c0-.827.673-1.5 1.5-1.5h.5v-1H35a2.503 2.503 0 00-2.5 2.5v4.359a2.85 2.85 0 01-.264-.096 2.92 2.92 0 00-3.277.727 5.966 5.966 0 00-1.345 2.51h10.771zm-7.632-2.431c.008.004.765.431 2.247.431 1.482 0 2.239-.427 2.246-.431l.51.86c-.038.023-.972.571-2.756.571-1.785 0-2.719-.548-2.758-.572l.511-.859z" fill="#09A66D"/></svg>