<svg width="70" height="71" fill="none" xmlns="http://www.w3.org/2000/svg"><g clip-path="url(#clip0_32_79)"><path d="M52.787 41.06c0-12.722-10.286-23.036-22.975-23.036-12.69 0-22.976 10.314-22.976 23.037 0 12.723 10.286 23.036 22.976 23.036 12.689 0 22.975-10.313 22.975-23.036z" fill="#89C8FD"/><path d="M29.812 18.024c-1.18 0-2.338.09-3.47.261 11.043 1.677 19.506 11.235 19.506 22.776 0 11.54-8.463 21.098-19.505 22.775 1.13.172 2.29.261 3.469.261 12.689 0 22.976-10.313 22.976-23.036S42.5 18.024 29.812 18.024z" fill="#60B6FF"/><path d="M26.825 26.977c-3.539 2.218-6.194 5.766-4.203 9.759 1.991 3.992 6.415 2.44 10.508 1.885 4.092-.554.995 12.088 3.428 15.193 2.434 3.105 9.29-3.105 8.627-7.098-.982-5.91-1.327-7.984 6.637-12.198l.021-.008c-2.684-9.09-10.81-15.833-20.593-16.44v.035s-.886 6.654-4.425 8.872zm17.381-3.87l.004.003-.004-.003zm2.81 2.688h.001zm-32.468 25.69c-1.063-1.62 1.88-5.434 2.544-8.317.664-2.883-3.318-2.662-4.535-3.66-1.216-.998-2.876-5.323-4.092-6.32l-.195-.154a23.035 23.035 0 00-1.434 8.027c0 7.614 3.685 14.365 9.364 18.559l.007-.483s.885-3.77-1.659-7.652z" fill="#BAEB6C"/><path d="M45.186 46.716l-.015-.086a22.899 22.899 0 01-1.908 5.057c1.306-1.542 2.18-3.423 1.923-4.97z" fill="#BAEB6C"/><path d="M31.25 18.07v.035s-.075.556-.265 1.398c8.057 3.05 13.956 10.508 14.768 19.442 1.015-1.389 2.872-2.736 6.069-4.427l.021-.008c-2.684-9.09-10.81-15.833-20.593-16.44z" fill="#96D629"/><path d="M29.78 70.79c-1.627 0-3.266-.134-4.904-.405-7.83-1.293-14.688-5.557-19.31-12.008C.944 51.927-.89 44.063.404 36.233a1.041 1.041 0 012.053.34c-1.202 7.28.503 14.594 4.801 20.592 4.3 5.999 10.676 9.964 17.958 11.167 15.032 2.483 29.278-7.726 31.761-22.756 1.202-7.281-.502-14.595-4.801-20.593-4.298-5.999-10.675-9.964-17.957-11.167a1.041 1.041 0 01.339-2.053c7.83 1.293 14.688 5.557 19.31 12.008 4.622 6.45 6.456 14.314 5.163 22.144-1.293 7.829-5.558 14.686-12.01 19.308-5.101 3.655-11.087 5.567-17.24 5.567z" fill="#09A66D"/><path d="M23.462 25.93C12.352 24.045 5.459 10.056 5.459 10.056S16.58-.877 27.69 1.008C38.8 2.893 45.693 16.882 45.693 16.882S34.572 27.815 23.462 25.93z" fill="#49CB5C"/><path d="M27.69 1.008c-2.121-.36-4.242-.252-6.287.158 10.646 2.39 17.214 15.716 17.214 15.716s-7.28 7.156-15.945 8.89c.26.059.524.113.79.158 11.11 1.885 22.232-9.048 22.232-9.048S38.8 2.892 27.69 1.008z" fill="#07B128"/><path d="M45.066 15.72l-10.865-1.833L24.05.82a19.1 19.1 0 00-2.403.3l9.52 12.256-8.194-1.382-6.99-9.045a33.5 33.5 0 00-1.909.936l5.873 7.599L6.401 9.197c-.608.531-.942.859-.942.859s.223.452.651 1.203l13.474 2.273-7.473 5.778c.482.495.986.985 1.514 1.46l8.752-6.767 8.674 1.464-11.796 9.126a17.33 17.33 0 002.269.876l12.32-9.53 10.872 1.833c.63-.55.978-.89.978-.89s-.215-.436-.628-1.162z" fill="#09A66D"/><path d="M53.25 12.351C56.232 5.3 66.559 2.924 66.559 2.924s5.495 9.06 2.515 16.113c-2.98 7.053-13.308 9.427-13.308 9.427s-5.495-9.06-2.514-16.113z" fill="#49CB5C"/><path d="M66.559 2.924s-2.349.54-5.129 1.87c1.427 3.022 3.688 9.155 1.537 14.243-1.559 3.69-5.128 6.099-8.178 7.557.55 1.166.977 1.87.977 1.87s10.327-2.374 13.307-9.427c2.98-7.052-2.514-16.113-2.514-16.113z" fill="#07B128"/><path d="M69.917 13.22l-7.941 3.332L67.19 4.086a19.187 19.187 0 00-.632-1.162s-.49.113-1.29.363L59.879 16.17l-3.342-8.222c-.566.5-1.1 1.042-1.584 1.63l3.786 9.317-3.556 8.503c.347.678.582 1.066.582 1.066s.534-.122 1.393-.395l3.673-8.78 9.083-3.81c.06-.754.057-1.511.003-2.259z" fill="#09A66D"/></g><defs><clipPath id="clip0_32_79"><path fill="#fff" transform="translate(0 .79)" d="M0 0h70v70H0z"/></clipPath></defs></svg>